PathFileType	4	(X/Y/Z)	D:\TRACE\v60_Jaco2_6-2-23\JustBodyDRS_Motion1_4-platform.trc
DataRate	CameraRate	NumFrames	NumMarkers	Units	OrigDataRate	OrigDataStartFrame	OrigNumFrames
100.00	100.00	      59	5	mm	100.00	6087	      6956
Frame#	Time	Left_Front			Right_Front			Left_Aft			Right_Aft			Post			
		X1	Y1	Z1	X2	Y2	Z2	X3	Y3	Z3	X4	Y4	Z4	X5	Y5	Z5	

6087	60.860	-786.07458	-20.18897	-645.39258	784.01941	-18.32233	-650.85114	-693.98584	27.20785	488.89902	748.17365	27.62263	498.55624	-0.10291	1264.09338	-1026.28931	
6088	60.870	-786.74927	-20.18785	-645.52307	782.88947	-18.31581	-650.75848	-695.05768	27.37963	488.90503	747.21259	27.59883	498.68219	-1.22093	1264.27173	-1026.51416	
6089	60.880	-787.90851	-20.05604	-645.49762	782.23706	-18.42629	-650.66205	-696.02478	27.38566	488.86908	746.72571	27.73240	498.78003	-1.89048	1264.22974	-1026.65015	
6090	60.890	-788.47479	-20.17495	-645.32611	781.34894	-18.66843	-650.82050	-696.83331	27.19587	488.86893	745.65723	27.75774	498.69675	-2.43765	1264.05664	-1026.54053	
6091	60.900	-789.58704	-20.29885	-645.37158	780.29401	-18.68943	-650.67505	-697.67029	27.22121	488.86542	744.87103	27.64941	498.67645	-3.43855	1264.04150	-1026.05188	
6092	60.910	-790.31305	-20.10475	-645.42169	779.24078	-18.65555	-650.71625	-698.70703	27.32790	488.91614	743.64661	27.51085	498.05444	-4.69076	1264.17261	-1025.84595	
6093	60.920	-791.61768	-19.86286	-645.27716	778.60651	-18.50208	-650.80652	-699.50171	27.26166	488.95056	742.85956	27.63305	498.86484	-5.54099	1264.13318	-1025.41870	
6094	60.930	-792.26666	-19.87379	-645.13062	777.53674	-18.43915	-650.84979	-700.56940	27.23761	488.90967	742.00690	27.47528	498.70581	-6.50278	1264.13086	-1024.93604	
6095	60.940	-793.36804	-20.16036	-645.25623	776.47375	-18.42363	-650.58423	-701.34863	27.01261	489.02200	740.77338	27.34395	498.58701	-7.67463	1264.29297	-1024.48743	
6096	60.950	-794.15851	-19.99739	-645.42523	775.56879	-18.52804	-650.58356	-702.10028	26.79346	488.99371	739.96057	27.44675	498.71829	-8.69589	1264.29846	-1023.63818	
6097	60.960	-795.35779	-19.70993	-645.55103	775.02802	-18.24173	-650.63477	-703.20868	26.64792	489.09271	739.10828	27.28017	498.80652	-9.25357	1264.54895	-1022.80139	
6098	60.970	-796.22888	-19.71485	-645.24219	773.81329	-18.03218	-650.45148	-704.02002	26.68137	489.12509	737.90125	27.15155	499.03421	-10.77308	1264.85461	-1022.21082	
6099	60.980	-796.89478	-19.47808	-645.04211	772.75635	-17.95465	-650.49316	-705.08038	26.67278	489.11819	737.22192	27.14927	498.87018	-11.43350	1265.16431	-1021.81372	
6100	60.990	-798.22345	-19.54393	-645.02209	772.04486	-17.75066	-650.40723	-706.03925	26.60941	489.18332	736.04443	27.03102	498.94257	-12.14988	1265.28699	-1021.22626	
6101	61.000	-799.12250	-19.38051	-645.15979	770.90613	-17.75819	-650.57068	-706.94061	26.55826	489.16196	735.33136	27.06008	498.98282	-13.29560	1265.42859	-1021.18713	
6102	61.010	-799.98431	-19.35818	-645.08264	769.87781	-17.82311	-650.51923	-707.94965	26.33663	489.20486	734.19067	26.90729	499.14511	-14.11333	1265.60120	-1021.26959	
6103	61.020	-800.79553	-19.19026	-645.03967	768.73547	-17.80716	-650.61462	-708.71423	26.12049	489.41714	733.31903	26.76716	499.12161	-15.12378	1265.74939	-1021.77863	
6104	61.030	-802.18579	-18.99649	-644.96381	767.85797	-17.56832	-650.48810	-709.26697	25.60140	489.58636	732.62457	26.89244	499.28101	-16.17715	1265.96350	-1021.47278	
6105	61.040	-803.08105	-18.87037	-644.98914	767.11078	-17.30837	-650.25769	-710.52454	25.68881	489.26480	731.39630	26.75928	499.23621	-17.27912	1266.13489	-1021.45825	
6106	61.050	-803.75787	-18.87408	-644.94189	766.03632	-17.32564	-650.39392	-711.36633	25.53238	489.14481	730.39081	26.56223	499.26675	-17.98872	1266.39551	-1021.51978	
6107	61.060	-804.71899	-18.78910	-644.79681	765.33673	-17.12106	-650.15607	-712.27014	25.28085	489.43948	729.68335	26.38789	499.24142	-18.81432	1266.73145	-1021.41071	
6108	61.070	-805.96570	-18.41641	-644.94751	764.14392	-16.92878	-650.26312	-713.94568	25.91092	489.44489	728.39368	26.36673	498.65161	-19.81424	1266.93701	-1021.02887	
6109	61.080	-806.88068	-18.24757	-645.11041	763.02850	-16.79225	-650.34576	-714.74207	25.81203	489.58261	727.53491	26.21848	499.33652	-20.85801	1267.31030	-1020.73639	
6110	61.090	-807.60132	-18.20920	-644.64026	762.18976	-16.42040	-649.99597	-715.70734	25.76192	489.57153	726.44855	26.02749	499.34824	-21.51121	1267.56409	-1020.57300	
6111	61.100	-808.90356	-17.98171	-644.42334	761.46863	-16.06437	-649.91779	-716.92755	25.65569	489.55820	725.34723	25.81599	499.35211	-22.97919	1267.91321	-1019.68127	
6112	61.110	-809.80359	-17.64050	-644.68604	760.08258	-15.92720	-650.12207	-717.51868	25.40771	489.65869	724.05957	25.42432	499.81815	-23.56441	1268.24597	-1019.15350	
6113	61.120	-810.54834	-17.40010	-644.66461	759.28149	-15.77324	-649.93231	-718.59741	25.05061	489.61206	723.31952	25.33063	499.67715	-24.40283	1268.66382	-1018.38940	
6114	61.130	-811.39539	-17.39276	-644.24530	758.52661	-15.84575	-649.76056	-719.03345	24.17299	490.18591	722.63654	25.18103	499.69421	-25.87595	1269.01782	-1017.58948	
6115	61.140	-812.84326	-17.35857	-644.13580	757.22009	-15.32816	-649.92285	-719.99866	24.30464	489.98022	721.70978	25.06875	499.81451	-26.50260	1269.15198	-1016.77173	
6116	61.150	-813.70306	-16.84325	-644.52362	756.24512	-15.17780	-649.84143	-721.19635	24.21986	490.15814	720.65271	25.00867	499.85141	-27.44951	1269.52783	-1015.76929	
6117	61.160	-814.50494	-16.47214	-644.52344	755.59778	-15.10739	-649.80499	-722.04211	24.09038	490.03320	719.84351	24.77592	499.88956	-28.73893	1270.12671	-1015.21631	
6118	61.170	-815.47803	-16.19406	-644.18469	754.50934	-14.56064	-649.74445	-722.87897	24.03803	490.02313	718.67670	24.70475	500.19196	-29.49880	1270.45850	-1014.84601	
6119	61.180	-816.39764	-15.88639	-644.20703	753.35931	-14.33491	-649.75256	-724.19983	23.88088	490.00317	717.83862	24.39205	500.09479	-30.34862	1270.72949	-1014.27490	
6120	61.190	-817.29932	-15.57634	-644.41699	752.34564	-14.27275	-649.68488	-725.30884	24.26738	490.20496	717.11713	24.29850	500.07303	-31.30558	1271.10498	-1013.89380	
6121	61.200	-818.20807	-15.28150	-644.33008	751.57526	-13.86197	-649.64337	-726.34308	23.96714	490.24716	715.93134	24.12961	500.06052	-32.39387	1271.53442	-1013.37201	
6122	61.210	-819.28198	-15.24404	-643.98456	750.60004	-13.61899	-649.69562	-727.50031	23.95479	490.31519	714.76770	23.82005	500.21417	-33.19579	1272.02258	-1013.40393	
6123	61.220	-820.22247	-15.06942	-643.85669	749.71051	-13.48649	-649.53595	-728.14807	23.55633	490.41153	713.90253	23.54655	500.21979	-33.96577	1272.54480	-1012.98895	
6124	61.230	-821.11523	-14.68463	-644.15271	748.60059	-13.10759	-649.37543	-728.88947	23.25531	490.52835	712.63904	23.52455	500.50629	-35.14162	1273.09607	-1012.50714	
6125	61.240	-822.11591	-14.32660	-643.97992	747.88055	-12.79692	-649.36627	-730.02875	23.28234	490.50378	712.98376	23.96450	500.30817	-35.71210	1273.51416	-1012.23810	
6126	61.250	-823.01843	-13.95305	-643.65314	746.89783	-12.45174	-649.26825	-731.79486	23.94027	491.10486	711.39526	23.07459	500.36246	-36.56797	1274.02185	-1011.39020	
6127	61.260	-823.81183	-13.68320	-643.74432	745.98242	-12.12141	-649.18365	-732.49744	23.48163	491.06653	710.38080	22.69300	500.43765	-37.72429	1274.47827	-1011.02777	
6128	61.270	-824.77435	-13.42476	-643.65265	745.14893	-11.86266	-649.02606	-733.15253	22.95296	491.21436	709.43298	22.39540	500.61090	-38.53619	1274.73230	-1009.76794	
6129	61.280	-825.85059	-13.08999	-643.52295	744.16742	-11.48993	-649.04822	-734.08588	22.69708	491.19989	708.59692	22.24015	500.76123	-39.41288	1275.44507	-1009.01758	
6130	61.290	-826.62402	-12.65205	-643.31158	743.45282	-11.02860	-648.89825	-734.86530	22.55001	491.24545	707.94745	22.11653	500.85245	-40.67044	1276.14075	-1008.06451	
6131	61.300	-827.44336	-12.17378	-643.49109	742.53638	-10.72734	-648.83893	-735.71899	22.22705	491.39566	707.08685	21.89779	500.97446	-41.48466	1276.77112	-1006.95087	
6132	61.310	-828.44977	-11.80887	-643.39587	741.42847	-10.29659	-648.79150	-736.59937	21.98631	491.39697	705.82770	21.41960	500.88849	-41.97232	1277.12207	-1005.88409	
6133	61.320	-829.55359	-11.38810	-643.37122	740.78223	-10.07014	-648.58600	-737.48535	21.77578	491.58112	705.23944	21.28650	501.17410	-43.36404	1277.71204	-1004.82703	
6134	61.330	-829.99957	-11.37514	-643.38428	739.94342	-9.80363	-648.72913	-738.32715	21.39943	491.73856	706.77173	21.81691	500.77567	-44.08341	1278.22754	-1003.95184	
6135	61.340	-830.78564	-10.72949	-643.05182	739.02527	-9.15777	-648.50244	-739.05524	21.18341	491.75601	703.36078	21.09361	501.68082	-44.50107	1278.69141	-1003.20959	
6136	61.350	-831.71790	-10.24893	-643.09576	738.33057	-8.88576	-648.20923	-739.96350	21.03213	491.84470	702.63129	20.63919	501.53421	-45.76576	1279.45569	-1002.26813	
6137	61.360	-832.79053	-9.86739	-642.92810	737.36786	-8.51399	-648.29382	-740.73914	20.63985	491.87643	701.96722	20.30343	501.56149	-46.19498	1279.89917	-1001.94171	
6138	61.370	-833.42657	-9.62501	-643.04095	736.63330	-8.11397	-648.23151	-741.46637	20.39242	492.15961	700.80157	19.98977	501.72672	-47.00797	1280.53284	-1001.38776	
6139	61.380	-834.03931	-9.42927	-642.70789	735.83624	-7.73403	-648.02960	-742.43591	20.02007	492.18594	699.93298	19.61736	501.93378	-47.86951	1281.07983	-1000.71851	
6140	61.390	-834.96515	-8.77415	-642.54089	734.96783	-7.31377	-647.98572	-743.27838	19.84843	492.22812	699.29083	19.34606	502.03687	-48.86502	1281.71887	-1000.24744	
6141	61.400	-835.83417	-8.02640	-642.76392	734.32379	-6.78705	-647.85718	-743.71399	19.52699	492.37393	698.52069	19.24577	502.07483	-49.55662	1282.49011	-999.48792	
6142	61.410	-836.45557	-7.63488	-642.51526	733.56830	-6.35924	-647.69019	-744.49078	19.16342	492.35904	697.61426	18.91000	502.17303	-49.79535	1283.06323	-998.89832	
6143	61.420	-837.28204	-7.61246	-642.50763	732.71094	-5.96730	-647.68591	-745.39453	18.94142	492.56116	697.07745	18.56151	502.29236	-51.12731	1283.63037	-997.60950	
6144	61.430	-838.11847	-7.14788	-642.20258	732.00470	-5.72568	-647.56824	-746.00208	18.53999	492.76996	696.19788	18.17572	502.37802	-51.91861	1284.12756	-996.55475	
6145	61.440	-838.95020	-6.67775	-642.06683	731.18176	-5.22818	-647.44702	-746.78973	18.18907	492.78494	695.20111	18.00312	502.61389	-52.29407	1284.67773	-995.72479	
